HIERARCHY
ROOT Hips
{
	OFFSET 0.00000 0.00000 0.00000
	CHANNELS 6 Xposition Yposition Zposition Yrotation Zrotation Xrotation 
	JOINT Lumbar
	{
		OFFSET 0 0 0
		CHANNELS 3 Zrotation Xrotation Yrotation
		JOINT Neck
		{
			OFFSET 0.00 0.2701 0.00
			CHANNELS 3 Zrotation Xrotation Yrotation
			End Site
			{
				OFFSET 0.00 0.1379 0.00
			}
		}
		JOINT RightShoulder
		{
			OFFSET 0.0119 0.2289 0.1181
			CHANNELS 3 Zrotation Xrotation Yrotation
			JOINT RightElbow
			{
				OFFSET 0.00 -0.1475 0.00
				CHANNELS 2 Zrotation Yrotation
				JOINT RightWrist
				{
					OFFSET 0.00 -0.1605 0.00
					CHANNELS 2 Zrotation Xrotation
					End Site
					{
						OFFSET 0.0040 -0.1068 0.0006
					}
				}
			}
		}
		JOINT LeftShoulder
		{
			OFFSET 0.0119 0.2289 -0.1181
			CHANNELS 3 Zrotation Xrotation Yrotation
			JOINT LeftElbow
			{
				OFFSET 0.00 -0.1475 0.00
				CHANNELS 2 Zrotation Yrotation
				JOINT LeftWrist
				{
					OFFSET 0.00 -0.1605 0.00
					CHANNELS 2 Zrotation Xrotation
					End Site
					{
						OFFSET 0.0040 -0.1068 -0.0006
					}
				}
			}
		}
	}
	JOINT RightHip
	{
		OFFSET 0.0316 -0.0424 0.0458
		CHANNELS 3 Zrotation Xrotation Yrotation
		JOINT RightKnee
		{
			OFFSET 0.00 -0.2438 0.00
			CHANNELS 1 Zrotation
			JOINT RightAnkle
			{
				OFFSET 0.00 -0.2449 0.00
				CHANNELS 3 Zrotation Xrotation Yrotation
				End Site
				{
					OFFSET 0.1237 -0.0542 0.0051
				}
			}
		}
	}
	JOINT LeftHip
	{
		OFFSET 0.0316 -0.0424 -0.0458
		CHANNELS 3 Zrotation Xrotation Yrotation
		JOINT LeftKnee
		{
			OFFSET 0.00 -0.2438 0.00
			CHANNELS 1 Zrotation
			JOINT LeftAnkle
			{
				OFFSET 0.00 -0.2449 0.00
				CHANNELS 3 Zrotation Xrotation Yrotation
				End Site
				{
					OFFSET 0.1237 -0.0542 -0.0051
				}
			}
		}
	}
}
MOTION
Frames: 19
Frame Time: 0.02
-2e-05 -6e-05 7e-05 -172.90967 -29.89742 2.23633 45.97862 -0.96873 -8.01742 -9.1841 3.00226 -0.09622 -21.09031 -6.0208 -2.83272 26.63435 97.82403 9.66403 1.13148 -22.06665 2.43163 13.3849 30.28359 -166.8019 33.86086 -10.95613 31.73708 0.59996 3.58658 -20.01265 -7.10439 -5.16849 -3.4234 35.823 1.9176 2.49751 -24.14364 -6.78973 2.58875 1.98702
-0.00037 -8e-05 -2e-05 -172.94883 -29.8838 2.23861 46.00751 -0.98627 -7.97136 -9.23561 2.99025 -0.09689 -21.18929 -6.06235 -2.66181 26.87308 97.80268 9.62822 1.12563 -22.10816 2.87233 11.95462 30.43577 -160.69615 32.01336 -9.98638 31.67941 0.45134 2.69254 -20.00598 -7.04076 -5.07892 -3.36442 35.76658 1.96007 2.65533 -24.14171 -6.78841 2.57018 1.97676
-0.00073 -0.00011 -0.00011 -172.98789 -29.87011 2.24087 46.03632 -1.00378 -7.92542 -9.28722 2.97829 -0.09757 -21.28808 -6.10294 -2.49441 27.1113 97.7905 9.59494 1.1212 -22.14971 3.31166 10.52895 30.5876 -154.60955 30.17174 -9.01964 31.62175 0.30324 1.80144 -19.99933 -6.97732 -4.98963 -3.30563 35.71016 2.00234 2.81218 -24.13978 -6.78708 2.55174 1.96657
-0.00108 -0.00013 -0.00019 -173.02693 -29.85652 2.24315 46.06511 -1.02126 -7.8795 -9.33856 2.96633 -0.09824 -21.38677 -6.14419 -2.32465 27.34935 97.77107 9.55972 1.11566 -22.19111 3.75102 9.10305 30.73934 -148.52245 28.3299 -8.05285 31.56425 0.15509 0.91019 -19.99268 -6.91388 -4.90035 -3.24683 35.6539 2.04467 2.96942 -24.13785 -6.78576 2.53325 1.95635
-0.00143 -0.00015 -0.00028 -173.06607 -29.843 2.24546 46.09401 -1.03876 -7.83347 -9.38982 2.9543 -0.09891 -21.48563 -6.18683 -2.14991 27.5878 97.738 9.52082 1.10797 -22.23241 4.19172 7.67263 30.89135 -142.41664 26.48233 -7.08311 31.50674 0.00638 0.01593 -19.98603 -6.85024 -4.81079 -3.18783 35.59764 2.08724 3.12785 -24.13591 -6.78444 2.5146 1.94604
-0.00178 -0.00018 -0.00036 -173.10497 -29.82893 2.24759 46.12262 -1.0563 -7.7877 -9.44225 2.94248 -0.09958 -21.58428 -6.22315 -1.99773 27.82551 97.76908 9.49919 1.11031 -22.27448 4.6281 6.25712 31.04278 -136.37111 24.65344 -6.12278 31.44875 -0.14042 -0.86849 -19.97939 -6.78722 -4.72207 -3.12948 35.54089 2.12888 3.28137 -24.13401 -6.78311 2.49658 1.93609
-0.00213 -0.0002 -0.00045 -173.14428 -29.81608 2.25009 46.15172 -1.07372 -7.74148 -9.49193 2.93028 -0.10025 -21.68318 -6.27186 -1.80133 28.06449 97.674 9.44353 1.09297 -22.31495 5.07279 4.8128 31.1953 -130.20977 22.78852 -5.14443 31.39192 -0.29087 -1.77165 -19.97272 -6.72304 -4.63176 -3.06989 35.4853 2.17231 3.44449 -24.13204 -6.78181 2.47734 1.92545
-0.00249 -0.00022 -0.00054 -173.18325 -29.80194 2.25226 46.18049 -1.09129 -7.69565 -9.54475 2.91839 -0.10092 -21.78196 -6.30969 -1.64385 28.30221 97.68984 9.418 1.09287 -22.35691 5.50963 3.39574 31.34665 -124.1574 20.95766 -4.18298 31.3338 -0.438 -2.65769 -19.96609 -6.65991 -4.54292 -3.01143 35.42842 2.21413 3.59898 -24.13013 -6.78047 2.45921 1.91543
-0.00284 -0.00025 -0.00062 -173.22168 -29.78685 2.25399 46.20839 -1.10892 -7.65035 -9.59908 2.90702 -0.1016 -21.88023 -6.33192 -1.54181 28.53891 97.86442 9.43469 1.11768 -22.40067 5.93782 2.00868 31.4973 -118.2271 19.16437 -3.24063 31.2749 -0.58094 -3.5225 -19.95944 -6.59809 -4.45585 -2.95437 35.37082 2.25386 3.742 -24.12829 -6.7791 2.44251 1.90623
-0.00319 -0.00027 -0.00071 -173.26286 -29.77909 2.25812 46.2399 -1.12583 -7.60218 -9.63772 2.89308 -0.10223 -21.98035 -6.43697 -1.14449 28.78306 97.19549 9.22471 1.01076 -22.434 6.41862 0.43897 31.65417 -111.56079 17.14265 -2.18368 31.22291 -0.74761 -4.50855 -19.95269 -6.52882 -4.35849 -2.88932 35.31991 2.30526 3.94825 -24.12602 -6.77798 2.41779 1.89247
-0.00355 -0.00029 -0.00079 -173.29847 -29.75469 2.25726 46.26468 -1.14447 -7.55997 -9.71393 2.88432 -0.10298 -22.07725 -6.3718 -1.35467 29.01045 98.26055 9.48229 1.17417 -22.48937 6.78657 -0.73887 31.79648 -106.46925 15.61083 -1.3716 31.15482 -0.86445 -5.23935 -19.94628 -6.47523 -4.2829 -2.84111 35.25327 2.33227 4.02289 -24.12471 -6.77627 2.40984 1.88824
-0.00395 -0.00031 -0.00087 -173.31661 -29.69482 2.242 46.2629 -1.1661 -7.53521 -9.85567 2.89216 -0.104 -22.15938 -5.79779 -3.37644 29.20037 104.50539 11.12222 2.14939 -22.60578 6.85844 -0.88795 31.91161 -105.54738 15.36603 -1.21082 31.05573 -0.84113 -5.25757 -19.93977 -6.46555 -4.26715 -2.83983 35.15732 2.28979 3.7189 -24.12568 -6.77345 2.44954 1.91123
-0.00436 -0.00033 -0.00095 -173.32945 -29.61699 2.22182 46.25541 -1.18969 -7.51633 -10.04072 2.90489 -0.10518 -22.23913 -5.06063 -5.9813 29.37221 112.41083 13.21197 3.38292 -22.74426 6.81531 -0.63737 32.01062 -106.22572 15.62027 -1.29852 30.93884 -0.76831 -5.02103 -19.93378 -6.47151 -4.2733 -2.85538 35.04382 2.22342 3.28656 -24.12769 -6.76996 2.50569 1.94354
-0.00478 -0.00036 -0.00103 -173.34633 -29.53995 2.2044 46.25642 -1.21368 -7.49393 -10.23225 2.91366 -0.10627 -22.3242 -4.42535 -8.22519 29.54636 119.28433 15.03267 4.4528 -22.87223 6.81489 -0.5361 32.10752 -106.28246 15.68801 -1.28755 30.8205 -0.72054 -4.90989 -19.92825 -6.46966 -4.26929 -2.86272 34.92823 2.16952 2.92367 -24.12944 -6.76641 2.55337 1.97097
-0.00515 -0.00037 -0.00111 -173.35684 -29.49146 2.1849 46.23443 -1.23269 -7.47475 -10.31909 2.92924 -0.10729 -22.39248 -3.67253 -10.87614 29.74409 127.34206 17.13238 5.7193 -23.00211 6.85117 -0.5603 32.24061 -105.93418 15.60105 -1.22197 30.73911 -0.66237 -4.76048 -19.91983 -6.47055 -4.26596 -2.87229 34.85167 2.10827 2.51129 -24.13025 -6.76435 2.60568 2.00136
-0.00562 -0.0004 -0.00118 -173.37872 -29.38244 2.16839 46.25657 -1.26195 -7.45073 -10.62711 2.93247 -0.10868 -22.49381 -3.12602 -12.81661 29.89007 133.31386 18.75096 6.6365 -23.13345 6.78801 -0.24119 32.29902 -106.76156 15.93654 -1.32268 30.58065 -0.61354 -4.62683 -19.91747 -6.46976 -4.26671 -2.88141 34.69394 2.05727 2.17441 -24.13335 -6.7591 2.65176 2.02754
-0.00646 -0.00049 -0.00118 -173.4386 -29.08403 2.16278 46.42212 -1.32394 -7.40802 -11.59405 2.89486 -0.10952 -22.69783 -3.18888 -12.65651 29.88298 133.23073 18.989 6.53402 -23.26004 6.44407 1.03477 32.11506 -110.85301 17.47373 -1.87667 30.17939 -0.60804 -4.63204 -19.93253 -6.45757 -4.2706 -2.88332 34.28062 2.03499 2.05237 -24.14182 -6.74448 2.68087 2.04203
-0.0074 -0.0006 -0.00116 -173.50896 -28.73077 2.16007 46.62813 -1.39521 -7.36106 -12.76935 2.8458 -0.11096 -22.9327 -3.46527 -11.76014 29.82677 130.97581 18.71873 6.07023 -23.38692 6.01174 2.6214 31.86291 -116.00212 19.39226 -2.57993 29.70816 -0.61288 -4.65696 -19.95352 -6.44363 -4.27824 -2.88449 33.7935 2.02466 2.01452 -24.15268 -6.72684 2.70245 2.05161
-0.00825 -0.00069 -0.00113 -173.57126 -28.41953 2.15507 46.80288 -1.45906 -7.3185 -13.81289 2.80546 -0.11318 -23.14693 -3.64394 -11.19826 29.8031 129.63385 18.63991 5.76558 -23.51719 5.6408 3.99698 31.66966 -120.38964 21.02908 -3.1777 29.29079 -0.60917 -4.64987 -19.9713 -6.43246 -4.28609 -2.88728 33.36287 2.0127 1.95577 -24.16292 -6.71105 2.72451 2.06189
